<?xml version="1.0" encoding="UTF-8" standalone="no"?>
<!-- Created with Inkscape (http://www.inkscape.org/) -->

<svg
   xmlns:dc="http://purl.org/dc/elements/1.1/"
   xmlns:cc="http://creativecommons.org/ns#"
   xmlns:rdf="http://www.w3.org/1999/02/22-rdf-syntax-ns#"
   xmlns:svg="http://www.w3.org/2000/svg"
   xmlns="http://www.w3.org/2000/svg"
   xmlns:sodipodi="http://sodipodi.sourceforge.net/DTD/sodipodi-0.dtd"
   xmlns:inkscape="http://www.inkscape.org/namespaces/inkscape"
   id="svg4141"
   version="1.1"
   inkscape:version="0.91+devel r"
   xml:space="preserve"
   width="746.66669"
   height="1280"
   viewBox="0 0 746.66669 1280"
   sodipodi:docname="sinhala letters grouping.svg"><metadata
     id="metadata4147"><rdf:RDF><cc:Work
         rdf:about=""><dc:format>image/svg+xml</dc:format><dc:type
           rdf:resource="http://purl.org/dc/dcmitype/StillImage" /><dc:title></dc:title></cc:Work></rdf:RDF></metadata><defs
     id="defs4145"><clipPath
       clipPathUnits="userSpaceOnUse"
       id="clipPath4209"><path
         d="M 0,960 560,960 560,0 0,0 0,960 Z"
         id="path4211"
         inkscape:connector-curvature="0" /></clipPath><clipPath
       clipPathUnits="userSpaceOnUse"
       id="clipPath4217"><path
         d="m 40.833,852.532 24,0 0,-24 -24,0 0,24 z"
         id="path4219"
         inkscape:connector-curvature="0" /></clipPath><clipPath
       clipPathUnits="userSpaceOnUse"
       id="clipPath4233"><path
         d="m 27.5,860.366 24,0 0,-24 -24,0 0,24 z"
         id="path4235"
         inkscape:connector-curvature="0" /></clipPath><clipPath
       clipPathUnits="userSpaceOnUse"
       id="clipPath4249"><path
         d="m 67.5,747.882 24,0 0,-24 -24,0 0,24 z"
         id="path4251"
         inkscape:connector-curvature="0" /></clipPath><clipPath
       clipPathUnits="userSpaceOnUse"
       id="clipPath4265"><path
         d="m 145.248,732.064 24,0 0,-24 -24,0 0,24 z"
         id="path4267"
         inkscape:connector-curvature="0" /></clipPath><clipPath
       clipPathUnits="userSpaceOnUse"
       id="clipPath4281"><path
         d="m 192.814,780.815 24,0 0,-24 -24,0 0,24 z"
         id="path4283"
         inkscape:connector-curvature="0" /></clipPath><clipPath
       clipPathUnits="userSpaceOnUse"
       id="clipPath4297"><path
         d="m 280,744.064 24,0 0,-24 -24,0 0,24 z"
         id="path4299"
         inkscape:connector-curvature="0" /></clipPath><clipPath
       clipPathUnits="userSpaceOnUse"
       id="clipPath4313"><path
         d="m 141.748,745.564 24,0 0,-24 -24,0 0,24 z"
         id="path4315"
         inkscape:connector-curvature="0" /></clipPath><clipPath
       clipPathUnits="userSpaceOnUse"
       id="clipPath4329"><path
         d="m 39.5,759.882 24,0 0,-24 -24,0 0,24 z"
         id="path4331"
         inkscape:connector-curvature="0" /></clipPath><clipPath
       clipPathUnits="userSpaceOnUse"
       id="clipPath4345"><path
         d="m 94,852.532 24,0 0,-24 -24,0 0,24 z"
         id="path4347"
         inkscape:connector-curvature="0" /></clipPath><clipPath
       clipPathUnits="userSpaceOnUse"
       id="clipPath4361"><path
         d="m 113.334,822.399 24,0 0,-24 -24,0 0,24 z"
         id="path4363"
         inkscape:connector-curvature="0" /></clipPath><clipPath
       clipPathUnits="userSpaceOnUse"
       id="clipPath4377"><path
         d="m 149.748,846.399 24,0 0,-24 -24,0 0,24 z"
         id="path4379"
         inkscape:connector-curvature="0" /></clipPath><clipPath
       clipPathUnits="userSpaceOnUse"
       id="clipPath4393"><path
         d="m 213.835,843.417 24,0 0,-24 -24,0 0,24 z"
         id="path4395"
         inkscape:connector-curvature="0" /></clipPath><clipPath
       clipPathUnits="userSpaceOnUse"
       id="clipPath4409"><path
         d="m 285.169,843.466 24,0 0,-24 -24,0 0,24 z"
         id="path4411"
         inkscape:connector-curvature="0" /></clipPath><clipPath
       clipPathUnits="userSpaceOnUse"
       id="clipPath4433"><path
         d="M 0,960 560,960 560,0 0,0 0,960 Z"
         id="path4435"
         inkscape:connector-curvature="0" /></clipPath><clipPath
       clipPathUnits="userSpaceOnUse"
       id="clipPath4441"><path
         d="m 348.334,861.667 24,0 0,-24 -24,0 0,24 z"
         id="path4443"
         inkscape:connector-curvature="0" /></clipPath><clipPath
       clipPathUnits="userSpaceOnUse"
       id="clipPath4467"><path
         d="M 0,960 560,960 560,0 0,0 0,960 Z"
         id="path4469"
         inkscape:connector-curvature="0" /></clipPath><clipPath
       clipPathUnits="userSpaceOnUse"
       id="clipPath4475"><path
         d="m 490.334,815.449 24,0 0,-24 -24,0 0,24 z"
         id="path4477"
         inkscape:connector-curvature="0" /></clipPath><clipPath
       clipPathUnits="userSpaceOnUse"
       id="clipPath4491"><path
         d="m 471.834,834.399 24,0 0,-24 -24,0 0,24 z"
         id="path4493"
         inkscape:connector-curvature="0" /></clipPath><clipPath
       clipPathUnits="userSpaceOnUse"
       id="clipPath4511"><path
         d="M 0,960 560,960 560,0 0,0 0,960 Z"
         id="path4513"
         inkscape:connector-curvature="0" /></clipPath><clipPath
       clipPathUnits="userSpaceOnUse"
       id="clipPath4519"><path
         d="m 413.834,845.667 24,0 0,-24 -24,0 0,24 z"
         id="path4521"
         inkscape:connector-curvature="0" /></clipPath><clipPath
       clipPathUnits="userSpaceOnUse"
       id="clipPath4535"><path
         d="m 406.5,803.449 24,0 0,-24 -24,0 0,24 z"
         id="path4537"
         inkscape:connector-curvature="0" /></clipPath><clipPath
       clipPathUnits="userSpaceOnUse"
       id="clipPath4551"><path
         d="m 418.5,820.449 24,0 0,-24 -24,0 0,24 z"
         id="path4553"
         inkscape:connector-curvature="0" /></clipPath><clipPath
       clipPathUnits="userSpaceOnUse"
       id="clipPath4567"><path
         d="m 134.344,526.203 14.933,0 0,-18.677 -14.933,0 0,18.677 z"
         id="path4569"
         inkscape:connector-curvature="0" /></clipPath><clipPath
       clipPathUnits="userSpaceOnUse"
       id="clipPath4581"><path
         d="m 86.668,526.018 12.7363,0 0,-18.678 -12.7363,0 0,18.678 z"
         id="path4583"
         inkscape:connector-curvature="0" /></clipPath><clipPath
       clipPathUnits="userSpaceOnUse"
       id="clipPath4595"><path
         d="m 86.668,489.513 12.7363,0 0,-18.677 -12.7363,0 0,18.677 z"
         id="path4597"
         inkscape:connector-curvature="0" /></clipPath><clipPath
       clipPathUnits="userSpaceOnUse"
       id="clipPath4609"><path
         d="m 361.309,520.034 14.933,0 0,-12.508 -14.933,0 0,12.508 z"
         id="path4611"
         inkscape:connector-curvature="0" /></clipPath><clipPath
       clipPathUnits="userSpaceOnUse"
       id="clipPath4623"><path
         d="m 323.643,520.034 14.933,0 0,-12.508 -14.933,0 0,12.508 z"
         id="path4625"
         inkscape:connector-curvature="0" /></clipPath><clipPath
       clipPathUnits="userSpaceOnUse"
       id="clipPath4641"><path
         d="M 0,960 560,960 560,0 0,0 0,960 Z"
         id="path4643"
         inkscape:connector-curvature="0" /></clipPath><clipPath
       clipPathUnits="userSpaceOnUse"
       id="clipPath4649"><path
         d="m 176.471,526.203 14.934,0 0,-19.048 -14.934,0 0,19.048 z"
         id="path4651"
         inkscape:connector-curvature="0" /></clipPath><clipPath
       clipPathUnits="userSpaceOnUse"
       id="clipPath4663"><path
         d="m 269.475,525.832 14.934,0 0,-18.677 -14.934,0 0,18.677 z"
         id="path4665"
         inkscape:connector-curvature="0" /></clipPath><clipPath
       clipPathUnits="userSpaceOnUse"
       id="clipPath4677"><path
         d="m 297.016,525.832 14.934,0 0,-18.677 -14.934,0 0,18.677 z"
         id="path4679"
         inkscape:connector-curvature="0" /></clipPath><clipPath
       clipPathUnits="userSpaceOnUse"
       id="clipPath4691"><path
         d="m 238.266,526.203 14.934,0 0,-19.048 -14.934,0 0,19.048 z"
         id="path4693"
         inkscape:connector-curvature="0" /></clipPath><clipPath
       clipPathUnits="userSpaceOnUse"
       id="clipPath4705"><path
         d="m 414.219,486.125 7.796,0 0,-9.75 -7.796,0 0,9.75 z"
         id="path4707"
         inkscape:connector-curvature="0" /></clipPath><clipPath
       clipPathUnits="userSpaceOnUse"
       id="clipPath4719"><path
         d="m 423.969,492.125 7.796,0 0,-9.75 -7.796,0 0,9.75 z"
         id="path4721"
         inkscape:connector-curvature="0" /></clipPath><clipPath
       clipPathUnits="userSpaceOnUse"
       id="clipPath4733"><path
         d="m 408.595,515.431 9.177,0 0,-7.905 -9.177,0 0,7.905 z"
         id="path4735"
         inkscape:connector-curvature="0" /></clipPath><clipPath
       clipPathUnits="userSpaceOnUse"
       id="clipPath4747"><path
         d="m 44.7051,532.171 14.9336,0 0,-25.016 -14.9336,0 0,25.016 z"
         id="path4749"
         inkscape:connector-curvature="0" /></clipPath><clipPath
       clipPathUnits="userSpaceOnUse"
       id="clipPath4761"><path
         d="m 33.6211,454.854 14.9336,0 0,-25.016 -14.9336,0 0,25.016 z"
         id="path4763"
         inkscape:connector-curvature="0" /></clipPath><clipPath
       clipPathUnits="userSpaceOnUse"
       id="clipPath4775"><path
         d="m 86.668,450.062 14.934,0 0,-20.225 -14.934,0 0,20.225 z"
         id="path4777"
         inkscape:connector-curvature="0" /></clipPath><clipPath
       clipPathUnits="userSpaceOnUse"
       id="clipPath4789"><path
         d="m 37.4717,495.851 22.167,0 0,-25.017 -22.167,0 0,25.017 z"
         id="path4791"
         inkscape:connector-curvature="0" /></clipPath><clipPath
       clipPathUnits="userSpaceOnUse"
       id="clipPath4803"><path
         d="m 30.666,579.232 58.7266,0 0,-19.994 -58.7266,0 0,19.994 z"
         id="path4805"
         inkscape:connector-curvature="0" /></clipPath></defs><sodipodi:namedview
     pagecolor="#ffffff"
     bordercolor="#666666"
     borderopacity="1"
     objecttolerance="10"
     gridtolerance="10"
     guidetolerance="10"
     inkscape:pageopacity="0"
     inkscape:pageshadow="2"
     inkscape:window-width="2500"
     inkscape:window-height="1538"
     id="namedview4143"
     inkscape:document-units="px"
     showgrid="false"
     inkscape:zoom="3.0250912"
     inkscape:cx="357.46605"
     inkscape:cy="986.43584"
     inkscape:window-x="0"
     inkscape:window-y="24"
     inkscape:window-maximized="1"
     inkscape:current-layer="g4207" /><g
     id="g4149"
     inkscape:groupmode="layer"
     inkscape:label="sinhala letters grouping"
     transform="matrix(1.3333333,0,0,-1.3333333,0,1280)"><text
       transform="matrix(1,0,0,-1,30.666,805.8818)"
       style="font-variant:normal;font-weight:normal;font-stretch:normal;font-size:79.50029755px;font-family:FMGanganee;-inkscape-font-specification:FMGanganeex;writing-mode:lr-tb;fill:#000000;fill-opacity:1;fill-rule:nonzero;stroke:none"
       id="text4151"><tspan
         x="0"
         y="0"
         id="tspan4153">g</tspan></text>
<text
       transform="matrix(1,0,0,-1,137.1055,507.5264)"
       style="font-variant:normal;font-weight:normal;font-stretch:normal;font-size:37.10110092px;font-family:FMGanganee;-inkscape-font-specification:FMGanganeex;writing-mode:lr-tb;fill:#000000;fill-opacity:1;fill-rule:nonzero;stroke:none"
       id="text4155"><tspan
         x="0"
         y="0"
         id="tspan4157">g</tspan><tspan
         x="-104.77351"
         y="0.37101099"
         id="tspan4159">g</tspan></text>
<text
       transform="matrix(1,0,0,-1,30.666,723.8818)"
       style="font-variant:normal;font-weight:normal;font-stretch:normal;font-size:79.50029755px;font-family:FMGanganee;-inkscape-font-specification:FMGanganeex;writing-mode:lr-tb;fill:#000000;fill-opacity:1;fill-rule:nonzero;stroke:none"
       id="text4161"><tspan
         x="0"
         y="0"
         id="tspan4163">K</tspan></text>
<text
       transform="matrix(1,0,0,-1,272.3496,507.1543)"
       style="font-variant:normal;font-weight:normal;font-stretch:normal;font-size:37.10110092px;font-family:FMGanganee;-inkscape-font-specification:FMGanganeex;writing-mode:lr-tb;fill:#000000;fill-opacity:1;fill-rule:nonzero;stroke:none"
       id="text4165"><tspan
         x="0"
         y="0"
         id="tspan4167">K</tspan><tspan
         x="135.15932"
         y="35.431553"
         id="tspan4169">K</tspan><tspan
         x="145.77022"
         y="65.891556"
         id="tspan4171">x</tspan></text>
<text
       transform="matrix(1,0,0,-1,118,723.8818)"
       style="font-variant:normal;font-weight:normal;font-stretch:normal;font-size:79.50029755px;font-family:FMGanganee;-inkscape-font-specification:FMGanganeex;writing-mode:lr-tb;fill:#000000;fill-opacity:1;fill-rule:nonzero;stroke:none"
       id="text4173"><tspan
         x="0"
         y="0"
         id="tspan4175">o</tspan><tspan
         x="151.84557"
         y="-77.433289"
         id="tspan4177">u</tspan><tspan
         x="95.877365"
         y="-77.512794"
         id="tspan4179">j</tspan><tspan
         x="63.36174"
         y="0"
         id="tspan4181">V</tspan></text>
<text
       transform="matrix(1,0,0,-1,365.1016,507.5264)"
       style="font-variant:normal;font-weight:normal;font-stretch:normal;font-size:37.10110092px;font-family:FMGanganee;-inkscape-font-specification:FMGanganeex;writing-mode:lr-tb;fill:#000000;fill-opacity:1;fill-rule:nonzero;stroke:none"
       id="text4183"><tspan
         x="0 -39.994987 42.406559"
         y="0"
         sodipodi:role="line"
         id="tspan4185">Vil</tspan><tspan
         x="-141.24388"
         y="0.37101099"
         id="tspan4187">l</tspan><tspan
         x="-334.42932"
         y="36.692989"
         id="tspan4189">V</tspan></text>
<text
       transform="matrix(1,0,0,-1,249.835,723.8818)"
       style="font-variant:normal;font-weight:normal;font-stretch:normal;font-size:79.50029755px;font-family:FMGanganee;-inkscape-font-specification:FMGanganeex;writing-mode:lr-tb;fill:#000000;fill-opacity:1;fill-rule:nonzero;stroke:none"
       id="text4191"><tspan
         x="0"
         y="0"
         id="tspan4193">Y</tspan></text>
<text
       transform="matrix(1,0,0,-1,90.0771,507.3408)"
       style="font-variant:normal;font-weight:normal;font-stretch:normal;font-size:37.10110092px;font-family:FMGanganee;-inkscape-font-specification:FMGanganeex;writing-mode:lr-tb;fill:#000000;fill-opacity:1;fill-rule:nonzero;stroke:none"
       id="text4195"><tspan
         x="0"
         y="0"
         id="tspan4197">.</tspan></text>
<text
       transform="matrix(1,0,0,-1,153.0801,804.748)"
       style="font-variant:normal;font-weight:normal;font-stretch:normal;font-size:79.50029755px;font-family:FMGanganee;-inkscape-font-specification:FMGanganeex;writing-mode:lr-tb;fill:#000000;fill-opacity:1;fill-rule:nonzero;stroke:none"
       id="text4199"><tspan
         x="0"
         y="0"
         id="tspan4201">k</tspan><tspan
         x="-66.382751"
         y="-1.1130042"
         id="tspan4203">.</tspan></text>
<g
       clip-path="url(#clipPath4209)"
       id="g4207"><g
         id="g4213"
         style="opacity:0.615"><g
           id="g4215"
           style="" /><g
           id="g4221"
           style=""><g
             id="g4223"
             clip-path="url(#clipPath4217)"
             style=""><g
               id="g4225"
               transform="translate(64.833,840.5322)"
               style=""><path
                 inkscape:connector-curvature="0"
                 id="path4227"
                 style="fill:#d41f00;fill-opacity:1;fill-rule:nonzero;stroke:none"
                 d="m 0,0 c 0,-6.627 -5.373,-12 -12,-12 -6.627,0 -12,5.373 -12,12 0,6.627 5.373,12 12,12 C -5.373,12 0,6.627 0,0" /></g></g></g></g><g
         id="g4229"
         style="opacity:0.615"><g
           id="g4231"
           style="" /><g
           id="g4237"
           style=""><g
             id="g4239"
             clip-path="url(#clipPath4233)"
             style=""><g
               id="g4241"
               transform="translate(51.5,848.3657)"
               style=""><path
                 inkscape:connector-curvature="0"
                 id="path4243"
                 style="fill:#d41f00;fill-opacity:1;fill-rule:nonzero;stroke:none"
                 d="m 0,0 c 0,-6.627 -5.373,-12 -12,-12 -6.627,0 -12,5.373 -12,12 0,6.627 5.373,12 12,12 C -5.373,12 0,6.627 0,0" /></g></g></g></g><g
         id="g4245"
         style="opacity:0.615"><g
           id="g4247"
           style="" /><g
           id="g4253"
           style=""><g
             id="g4255"
             clip-path="url(#clipPath4249)"
             style=""><g
               id="g4257"
               transform="translate(91.5,735.8818)"
               style=""><path
                 inkscape:connector-curvature="0"
                 id="path4259"
                 style="fill:#d41f00;fill-opacity:1;fill-rule:nonzero;stroke:none"
                 d="m 0,0 c 0,-6.627 -5.373,-12 -12,-12 -6.627,0 -12,5.373 -12,12 0,6.627 5.373,12 12,12 C -5.373,12 0,6.627 0,0" /></g></g></g></g><g
         id="g4261"
         style="opacity:0.615"><g
           id="g4263"
           style="" /><g
           id="g4269"
           style=""><g
             id="g4271"
             clip-path="url(#clipPath4265)"
             style=""><g
               id="g4273"
               transform="translate(169.248,720.0645)"
               style=""><path
                 inkscape:connector-curvature="0"
                 id="path4275"
                 style="fill:#d41f00;fill-opacity:1;fill-rule:nonzero;stroke:none"
                 d="m 0,0 c 0,-6.627 -5.373,-12 -12,-12 -6.627,0 -12,5.373 -12,12 0,6.627 5.373,12 12,12 C -5.373,12 0,6.627 0,0" /></g></g></g></g><g
         id="g4277"
         style="opacity:0.615"><g
           id="g4279"
           style="" /><g
           id="g4285"
           style=""><g
             id="g4287"
             clip-path="url(#clipPath4281)"
             style=""><g
               id="g4289"
               transform="translate(216.8145,768.8149)"
               style=""><path
                 inkscape:connector-curvature="0"
                 id="path4291"
                 style="fill:#d41f00;fill-opacity:1;fill-rule:nonzero;stroke:none"
                 d="m 0,0 c 0,-6.627 -5.373,-12 -12,-12 -6.627,0 -12,5.373 -12,12 0,6.627 5.373,12 12,12 C -5.373,12 0,6.627 0,0" /></g></g></g></g><g
         id="g4293"
         style="opacity:0.615"><g
           id="g4295"
           style="" /><g
           id="g4301"
           style=""><g
             id="g4303"
             clip-path="url(#clipPath4297)"
             style=""><g
               id="g4305"
               transform="translate(304,732.0645)"
               style=""><path
                 inkscape:connector-curvature="0"
                 id="path4307"
                 style="fill:#d41f00;fill-opacity:1;fill-rule:nonzero;stroke:none"
                 d="m 0,0 c 0,-6.627 -5.373,-12 -12,-12 -6.627,0 -12,5.373 -12,12 0,6.627 5.373,12 12,12 C -5.373,12 0,6.627 0,0" /></g></g></g></g><g
         id="g4309"
         style="opacity:0.615"><g
           id="g4311"
           style="" /><g
           id="g4317"
           style=""><g
             id="g4319"
             clip-path="url(#clipPath4313)"
             style=""><g
               id="g4321"
               transform="translate(165.748,733.5645)"
               style=""><path
                 inkscape:connector-curvature="0"
                 id="path4323"
                 style="fill:#d41f00;fill-opacity:1;fill-rule:nonzero;stroke:none"
                 d="m 0,0 c 0,-6.627 -5.373,-12 -12,-12 -6.627,0 -12,5.373 -12,12 0,6.627 5.373,12 12,12 C -5.373,12 0,6.627 0,0" /></g></g></g></g><g
         id="g4325"
         style="opacity:0.615"><g
           id="g4327"
           style="" /><g
           id="g4333"
           style=""><g
             id="g4335"
             clip-path="url(#clipPath4329)"
             style=""><g
               id="g4337"
               transform="translate(63.5,747.8818)"
               style=""><path
                 inkscape:connector-curvature="0"
                 id="path4339"
                 style="fill:#d41f00;fill-opacity:1;fill-rule:nonzero;stroke:none"
                 d="m 0,0 c 0,-6.627 -5.373,-12 -12,-12 -6.627,0 -12,5.373 -12,12 0,6.627 5.373,12 12,12 C -5.373,12 0,6.627 0,0" /></g></g></g></g><g
         id="g4341"
         style="opacity:0.615"><g
           id="g4343"
           style="" /><g
           id="g4349"
           style=""><g
             id="g4351"
             clip-path="url(#clipPath4345)"
             style=""><g
               id="g4353"
               transform="translate(118,840.5322)"
               style=""><path
                 inkscape:connector-curvature="0"
                 id="path4355"
                 style="fill:#d41f00;fill-opacity:1;fill-rule:nonzero;stroke:none"
                 d="m 0,0 c 0,-6.627 -5.373,-12 -12,-12 -6.627,0 -12,5.373 -12,12 0,6.627 5.373,12 12,12 C -5.373,12 0,6.627 0,0" /></g></g></g></g><g
         id="g4357"
         style="opacity:0.615"><g
           id="g4359"
           style="" /><g
           id="g4365"
           style=""><g
             id="g4367"
             clip-path="url(#clipPath4361)"
             style=""><g
               id="g4369"
               transform="translate(137.334,810.3994)"
               style=""><path
                 inkscape:connector-curvature="0"
                 id="path4371"
                 style="fill:#d41f00;fill-opacity:1;fill-rule:nonzero;stroke:none"
                 d="m 0,0 c 0,-6.627 -5.373,-12 -12,-12 -6.627,0 -12,5.373 -12,12 0,6.627 5.373,12 12,12 C -5.373,12 0,6.627 0,0" /></g></g></g></g><g
         id="g4373"
         style="opacity:0.615"><g
           id="g4375"
           style="" /><g
           id="g4381"
           style=""><g
             id="g4383"
             clip-path="url(#clipPath4377)"
             style=""><g
               id="g4385"
               transform="translate(173.748,834.3994)"
               style=""><path
                 inkscape:connector-curvature="0"
                 id="path4387"
                 style="fill:#d41f00;fill-opacity:1;fill-rule:nonzero;stroke:none"
                 d="m 0,0 c 0,-6.627 -5.373,-12 -12,-12 -6.627,0 -12,5.373 -12,12 0,6.627 5.373,12 12,12 C -5.373,12 0,6.627 0,0" /></g></g></g></g><g
         id="g4389"
         style="opacity:0.615"><g
           id="g4391"
           style="" /><g
           id="g4397"
           style=""><g
             id="g4399"
             clip-path="url(#clipPath4393)"
             style=""><g
               id="g4401"
               transform="translate(237.835,831.417)"
               style=""><path
                 inkscape:connector-curvature="0"
                 id="path4403"
                 style="fill:#d41f00;fill-opacity:1;fill-rule:nonzero;stroke:none"
                 d="m 0,0 c 0,-6.627 -5.373,-12 -12,-12 -6.627,0 -12,5.373 -12,12 0,6.627 5.373,12 12,12 C -5.373,12 0,6.627 0,0" /></g></g></g></g><g
         id="g4405"
         style="opacity:0.615"><g
           id="g4407"
           style="" /><g
           id="g4413"
           style=""><g
             id="g4415"
             clip-path="url(#clipPath4409)"
             style=""><g
               id="g4417"
               transform="translate(309.1689,831.4663)"
               style=""><path
                 inkscape:connector-curvature="0"
                 id="path4419"
                 style="fill:#d41f00;fill-opacity:1;fill-rule:nonzero;stroke:none"
                 d="m 0,0 c 0,-6.627 -5.373,-12 -12,-12 -6.627,0 -12,5.373 -12,12 0,6.627 5.373,12 12,12 C -5.373,12 0,6.627 0,0" /></g></g></g></g></g><text
       transform="matrix(1,0,0,-1,327.333,801.332)"
       style="font-variant:normal;font-weight:normal;font-stretch:normal;font-size:79.50029755px;font-family:FMGanganee;-inkscape-font-specification:FMGanganeex;writing-mode:lr-tb;fill:#000000;fill-opacity:1;fill-rule:nonzero;stroke:none"
       id="text4421"><tspan
         x="0"
         y="0"
         id="tspan4423">r</tspan></text>
<text
       transform="matrix(1,0,0,-1,86.668,470.835)"
       style="font-variant:normal;font-weight:normal;font-stretch:normal;font-size:37.10110092px;font-family:FMGanganee;-inkscape-font-specification:FMGanganeex;writing-mode:lr-tb;fill:#000000;fill-opacity:1;fill-rule:nonzero;stroke:none"
       id="text4425"><tspan
         x="0"
         y="0"
         id="tspan4427">r</tspan></text>
<g
       id="g4429"
       style="opacity:0.615"><g
         id="g4431"
         clip-path="url(#clipPath4433)"
         style=""><g
           id="g4437"
           style=""><g
             id="g4439"
             style="" /><g
             id="g4445"
             style=""><g
               clip-path="url(#clipPath4441)"
               id="g4447"
               style=""><g
                 transform="translate(372.334,849.6665)"
                 id="g4449"
                 style=""><path
                   d="m 0,0 c 0,-6.627 -5.373,-12 -12,-12 -6.627,0 -12,5.373 -12,12 0,6.627 5.373,12 12,12 C -5.373,12 0,6.627 0,0"
                   style="fill:#d41f00;fill-opacity:1;fill-rule:nonzero;stroke:none"
                   id="path4451"
                   inkscape:connector-curvature="0" /></g></g></g></g></g></g><text
       transform="matrix(1,0,0,-1,457.333,801.332)"
       style="font-variant:normal;font-weight:normal;font-stretch:normal;font-size:79.50029755px;font-family:FMGanganee;-inkscape-font-specification:FMGanganeex;writing-mode:lr-tb;fill:#000000;fill-opacity:1;fill-rule:nonzero;stroke:none"
       id="text4453"><tspan
         x="0"
         y="0"
         id="tspan4455">,</tspan></text>
<text
       transform="matrix(1,0,0,-1,36.4922,436.0996)"
       style="font-variant:normal;font-weight:normal;font-stretch:normal;font-size:37.10110092px;font-family:FMGanganee;-inkscape-font-specification:FMGanganeex;writing-mode:lr-tb;fill:#000000;fill-opacity:1;fill-rule:nonzero;stroke:none"
       id="text4457"><tspan
         x="0"
         y="0"
         id="tspan4459">,</tspan><tspan
         x="50.160686"
         y="-0.81622422"
         id="tspan4461">W</tspan></text>
<g
       id="g4463"
       style="opacity:0.615"><g
         id="g4465"
         clip-path="url(#clipPath4467)"
         style=""><g
           id="g4471"
           style=""><g
             id="g4473"
             style="" /><g
             id="g4479"
             style=""><g
               clip-path="url(#clipPath4475)"
               id="g4481"
               style=""><g
                 transform="translate(514.334,803.4492)"
                 id="g4483"
                 style=""><path
                   d="m 0,0 c 0,-6.627 -5.373,-12 -12,-12 -6.627,0 -12,5.373 -12,12 0,6.627 5.373,12 12,12 C -5.373,12 0,6.627 0,0"
                   style="fill:#d41f00;fill-opacity:1;fill-rule:nonzero;stroke:none"
                   id="path4485"
                   inkscape:connector-curvature="0" /></g></g></g></g><g
           id="g4487"
           style=""><g
             id="g4489"
             style="" /><g
             id="g4495"
             style=""><g
               clip-path="url(#clipPath4491)"
               id="g4497"
               style=""><g
                 transform="translate(495.834,822.3994)"
                 id="g4499"
                 style=""><path
                   d="m 0,0 c 0,-6.627 -5.373,-12 -12,-12 -6.627,0 -12,5.373 -12,12 0,6.627 5.373,12 12,12 C -5.373,12 0,6.627 0,0"
                   style="fill:#d41f00;fill-opacity:1;fill-rule:nonzero;stroke:none"
                   id="path4501"
                   inkscape:connector-curvature="0" /></g></g></g></g></g></g><text
       transform="matrix(1,0,0,-1,383.333,801.332)"
       style="font-variant:normal;font-weight:normal;font-stretch:normal;font-size:79.50029755px;font-family:FMGanganee;-inkscape-font-specification:FMGanganeex;writing-mode:lr-tb;fill:#000000;fill-opacity:1;fill-rule:nonzero;stroke:none"
       id="text4503"><tspan
         x="0"
         y="0"
         id="tspan4505">w</tspan></text>
<g
       id="g4515"
       style="opacity:0.615"><g
         id="g4517"
         style="" /><g
         id="g4523"
         style=""><g
           clip-path="url(#clipPath4519)"
           id="g4525"
           style=""><g
             transform="translate(437.834,833.6665)"
             id="g4527"
             style=""><path
               d="m 0,0 c 0,-6.627 -5.373,-12 -12,-12 -6.627,0 -12,5.373 -12,12 0,6.627 5.373,12 12,12 C -5.373,12 0,6.627 0,0"
               style="fill:#d41f00;fill-opacity:1;fill-rule:nonzero;stroke:none"
               id="path4529"
               inkscape:connector-curvature="0" /></g></g></g></g><g
       id="g4531"
       style="opacity:0.615"><g
         id="g4533"
         style="" /><g
         id="g4539"
         style=""><g
           clip-path="url(#clipPath4535)"
           id="g4541"
           style=""><g
             transform="translate(430.5,791.4492)"
             id="g4543"
             style=""><path
               d="m 0,0 c 0,-6.627 -5.373,-12 -12,-12 -6.627,0 -12,5.373 -12,12 0,6.627 5.373,12 12,12 C -5.373,12 0,6.627 0,0"
               style="fill:#d41f00;fill-opacity:1;fill-rule:nonzero;stroke:none"
               id="path4545"
               inkscape:connector-curvature="0" /></g></g></g></g><g
       id="g4547"
       style="opacity:0.615"><g
         id="g4549"
         style="" /><g
         id="g4555"
         style=""><g
           clip-path="url(#clipPath4551)"
           id="g4557"
           style=""><g
             transform="translate(442.5,808.4492)"
             id="g4559"
             style=""><path
               d="m 0,0 c 0,-6.627 -5.373,-12 -12,-12 -6.627,0 -12,5.373 -12,12 0,6.627 5.373,12 12,12 C -5.373,12 0,6.627 0,0"
               style="fill:#d41f00;fill-opacity:1;fill-rule:nonzero;stroke:none"
               id="path4561"
               inkscape:connector-curvature="0" /></g></g></g></g><g
       id="g4563"
       style="opacity:0"><g
         id="g4565"
         style="" /><g
         id="g4571"
         style=""><g
           clip-path="url(#clipPath4567)"
           id="g4573"
           style=""><path
             d="m 149.277,507.526 -14.934,0 0,18.677 14.934,0 0,-18.677 z"
             style="fill:#d41f00;fill-opacity:1;fill-rule:nonzero;stroke:none"
             id="path4575"
             inkscape:connector-curvature="0" /></g></g></g><g
       id="g4577"
       style="opacity:0"><g
         id="g4579"
         style="" /><g
         id="g4585"
         style=""><g
           clip-path="url(#clipPath4581)"
           id="g4587"
           style=""><path
             d="m 99.404,507.34 -12.736,0 0,18.677 12.736,0 0,-18.677 z"
             style="fill:#d41f00;fill-opacity:1;fill-rule:nonzero;stroke:none"
             id="path4589"
             inkscape:connector-curvature="0" /></g></g></g><g
       id="g4591"
       style="opacity:0"><g
         id="g4593"
         style="" /><g
         id="g4599"
         style=""><g
           clip-path="url(#clipPath4595)"
           id="g4601"
           style=""><path
             d="m 99.404,470.836 -12.736,0 0,18.677 12.736,0 0,-18.677 z"
             style="fill:#d41f00;fill-opacity:1;fill-rule:nonzero;stroke:none"
             id="path4603"
             inkscape:connector-curvature="0" /></g></g></g><g
       id="g4605"
       style="opacity:0"><g
         id="g4607"
         style="" /><g
         id="g4613"
         style=""><g
           clip-path="url(#clipPath4609)"
           id="g4615"
           style=""><path
             d="m 376.242,507.526 -14.934,0 0,12.508 14.934,0 0,-12.508 z"
             style="fill:#d41f00;fill-opacity:1;fill-rule:nonzero;stroke:none"
             id="path4617"
             inkscape:connector-curvature="0" /></g></g></g><g
       id="g4619"
       style="opacity:0"><g
         id="g4621"
         style="" /><g
         id="g4627"
         style=""><g
           clip-path="url(#clipPath4623)"
           id="g4629"
           style=""><path
             d="m 338.576,507.526 -14.934,0 0,12.508 14.934,0 0,-12.508 z"
             style="fill:#d41f00;fill-opacity:1;fill-rule:nonzero;stroke:none"
             id="path4631"
             inkscape:connector-curvature="0" /></g></g></g><text
       transform="matrix(1,0,0,-1,180.2637,507.1553)"
       style="font-variant:normal;font-weight:normal;font-stretch:normal;font-size:37.10110092px;font-family:FMGanganee;-inkscape-font-specification:FMGanganeex;writing-mode:lr-tb;fill:#000000;fill-opacity:1;fill-rule:nonzero;stroke:none"
       id="text4633"><tspan
         x="0"
         y="0"
         id="tspan4635">h</tspan></text>
<g
       id="g4645"
       style="opacity:0"><g
         id="g4647"
         style="" /><g
         id="g4653"
         style=""><g
           clip-path="url(#clipPath4649)"
           id="g4655"
           style=""><path
             d="m 191.405,507.155 -14.935,0 0,19.048 14.935,0 0,-19.048 z"
             style="fill:#d41f00;fill-opacity:1;fill-rule:nonzero;stroke:none"
             id="path4657"
             inkscape:connector-curvature="0" /></g></g></g><g
       id="g4659"
       style="opacity:0"><g
         id="g4661"
         style="" /><g
         id="g4667"
         style=""><g
           clip-path="url(#clipPath4663)"
           id="g4669"
           style=""><path
             d="m 284.409,507.155 -14.935,0 0,18.677 14.935,0 0,-18.677 z"
             style="fill:#d41f00;fill-opacity:1;fill-rule:nonzero;stroke:none"
             id="path4671"
             inkscape:connector-curvature="0" /></g></g></g><g
       id="g4673"
       style="opacity:0"><g
         id="g4675"
         style="" /><g
         id="g4681"
         style=""><g
           clip-path="url(#clipPath4677)"
           id="g4683"
           style=""><path
             d="m 311.95,507.155 -14.935,0 0,18.677 14.935,0 0,-18.677 z"
             style="fill:#d41f00;fill-opacity:1;fill-rule:nonzero;stroke:none"
             id="path4685"
             inkscape:connector-curvature="0" /></g></g></g><g
       id="g4687"
       style="opacity:0"><g
         id="g4689"
         style="" /><g
         id="g4695"
         style=""><g
           clip-path="url(#clipPath4691)"
           id="g4697"
           style=""><path
             d="m 253.2,507.155 -14.935,0 0,19.048 14.935,0 0,-19.048 z"
             style="fill:#d41f00;fill-opacity:1;fill-rule:nonzero;stroke:none"
             id="path4699"
             inkscape:connector-curvature="0" /></g></g></g><g
       id="g4701"
       style="opacity:0"><g
         id="g4703"
         style="" /><g
         id="g4709"
         style=""><g
           clip-path="url(#clipPath4705)"
           id="g4711"
           style=""><path
             d="m 422.015,476.375 -7.796,0 0,9.75 7.796,0 0,-9.75 z"
             style="fill:#d41f00;fill-opacity:1;fill-rule:nonzero;stroke:none"
             id="path4713"
             inkscape:connector-curvature="0" /></g></g></g><g
       id="g4715"
       style="opacity:0"><g
         id="g4717"
         style="" /><g
         id="g4723"
         style=""><g
           clip-path="url(#clipPath4719)"
           id="g4725"
           style=""><path
             d="m 431.765,482.375 -7.796,0 0,9.75 7.796,0 0,-9.75 z"
             style="fill:#d41f00;fill-opacity:1;fill-rule:nonzero;stroke:none"
             id="path4727"
             inkscape:connector-curvature="0" /></g></g></g><g
       id="g4729"
       style="opacity:0"><g
         id="g4731"
         style="" /><g
         id="g4737"
         style=""><g
           clip-path="url(#clipPath4733)"
           id="g4739"
           style=""><path
             d="m 417.772,507.526 -9.178,0 0,7.905 9.178,0 0,-7.905 z"
             style="fill:#d41f00;fill-opacity:1;fill-rule:nonzero;stroke:none"
             id="path4741"
             inkscape:connector-curvature="0" /></g></g></g><g
       id="g4743"
       style="opacity:0"><g
         id="g4745"
         style="" /><g
         id="g4751"
         style=""><g
           clip-path="url(#clipPath4747)"
           id="g4753"
           style=""><path
             d="m 59.639,507.155 -14.934,0 0,25.016 14.934,0 0,-25.016 z"
             style="fill:#d41f00;fill-opacity:1;fill-rule:nonzero;stroke:none"
             id="path4755"
             inkscape:connector-curvature="0" /></g></g></g><g
       id="g4757"
       style="opacity:0"><g
         id="g4759"
         style="" /><g
         id="g4765"
         style=""><g
           clip-path="url(#clipPath4761)"
           id="g4767"
           style=""><path
             d="m 48.555,429.838 -14.934,0 0,25.016 14.934,0 0,-25.016 z"
             style="fill:#d41f00;fill-opacity:1;fill-rule:nonzero;stroke:none"
             id="path4769"
             inkscape:connector-curvature="0" /></g></g></g><g
       id="g4771"
       style="opacity:0"><g
         id="g4773"
         style="" /><g
         id="g4779"
         style=""><g
           clip-path="url(#clipPath4775)"
           id="g4781"
           style=""><path
             d="m 101.602,429.837 -14.934,0 0,20.225 14.934,0 0,-20.225 z"
             style="fill:#d41f00;fill-opacity:1;fill-rule:nonzero;stroke:none"
             id="path4783"
             inkscape:connector-curvature="0" /></g></g></g><g
       id="g4785"
       style="opacity:0"><g
         id="g4787"
         style="" /><g
         id="g4793"
         style=""><g
           clip-path="url(#clipPath4789)"
           id="g4795"
           style=""><path
             d="m 59.639,470.834 -22.167,0 0,25.017 22.167,0 0,-25.017 z"
             style="fill:#d41f00;fill-opacity:1;fill-rule:nonzero;stroke:none"
             id="path4797"
             inkscape:connector-curvature="0" /></g></g></g><g
       id="g4799"><g
         id="g4801" /><g
         id="g4807"><g
           clip-path="url(#clipPath4803)"
           id="g4809"><text
             transform="matrix(1,0,0,-1,30.666,561.9639)"
             style="font-variant:normal;font-weight:normal;font-stretch:normal;font-size:18.27370071px;font-family:Bebas;-inkscape-font-specification:Bebas;writing-mode:lr-tb;fill:#d41f00;fill-opacity:1;fill-rule:nonzero;stroke:none"
             id="text4811"><tspan
               x="0 9.7727747 19.72646 28.972952 40.264271 48.933315"
               y="0"
               sodipodi:role="line"
               id="tspan4813">CURVES</tspan></text>
</g></g></g></g></svg>